<?xml version="1.0" encoding="utf-8"?>
<!-- Generator: Adobe Illustrator 16.0.0, SVG Export Plug-In . SVG Version: 6.00 Build 0)  -->
<!DOCTYPE svg PUBLIC "-//W3C//DTD SVG 1.1//EN" "http://www.w3.org/Graphics/SVG/1.1/DTD/svg11.dtd">
<svg version="1.1" id="Layer_1" xmlns="http://www.w3.org/2000/svg" xmlns:xlink="http://www.w3.org/1999/xlink" x="0px" y="0px"
	 width="120.833px" height="48.668px" viewBox="0 0 120.833 48.668" enable-background="new 0 0 120.833 48.668"
	 xml:space="preserve">
<g>
	<g>
		<path fill="#6D6F7C" d="M57.818,41.286c0,4.13-1.929,6.382-5.713,6.382c-1.731,0-2.993-0.471-3.908-1.41l1.78-2.35
			c0.545,0.544,1.212,0.791,2.103,0.791c2.053,0,2.498-1.188,2.498-3.611v-7.543h3.24V41.286z"/>
		<path fill="#6D6F7C" d="M69.219,33.545h3.265v13.851h-3.265V33.545z"/>
		<path fill="#6D6F7C" d="M87.124,44.551l-0.965,2.845H82.82l5.17-13.851h4.031l5.17,13.851h-3.364l-0.989-2.845H87.124z
			 M91.131,39.555c-0.791-2.275-1.088-3.289-1.113-3.34h-0.074l-1.187,3.488l-0.692,2.053h3.833L91.131,39.555z"/>
		<path fill="#6D6F7C" d="M117.1,47.396l-6.233-8.83h-0.074c0,0.024,0.05,1.509,0.05,3.092v5.738h-3.266V33.545h3.364l6.233,8.582
			h0.074c0-0.024-0.025-1.311-0.025-2.721v-5.861h3.266v13.851H117.1z"/>
	</g>
	<g>
		<path fill="#FFFFFF" d="M8.531,32.323c-1.044,0-2.016-0.167-2.916-0.499c-0.899-0.334-1.688-0.801-2.366-1.4
			c-0.678-0.6-1.216-1.305-1.616-2.115c-0.4-0.812-0.611-1.695-0.633-2.649c-0.021-1.244,0.172-2.354,0.583-3.333
			c0.411-0.977,0.955-1.844,1.633-2.599c0.677-0.755,1.449-1.394,2.316-1.916c0.866-0.521,1.754-0.95,2.666-1.282
			c-0.489-0.268-0.95-0.589-1.383-0.967s-0.816-0.8-1.149-1.267c-0.333-0.466-0.6-0.954-0.8-1.466c-0.2-0.512-0.3-1.021-0.3-1.533
			c-0.045-1.555,0.271-2.965,0.95-4.232c0.677-1.266,1.549-2.349,2.616-3.248c1.066-0.9,2.26-1.594,3.582-2.083
			C13.035,1.245,14.329,1,15.595,1c0.844,0,1.566,0.139,2.166,0.417c0.6,0.278,1.088,0.622,1.466,1.032
			c0.377,0.412,0.661,0.855,0.85,1.334c0.188,0.478,0.294,0.916,0.317,1.316c0.021,0.732-0.073,1.477-0.283,2.232
			c-0.211,0.755-0.478,1.438-0.8,2.049c-0.322,0.611-0.683,1.111-1.083,1.5s-0.789,0.582-1.167,0.582
			c-0.289,0-0.589-0.043-0.899-0.133c-0.267-0.066-0.578-0.178-0.933-0.333c-0.356-0.155-0.711-0.388-1.066-0.7
			c0.578-0.221,1.088-0.538,1.533-0.949c0.444-0.41,0.816-0.871,1.116-1.383c0.3-0.511,0.522-1.038,0.667-1.583
			c0.145-0.544,0.217-1.061,0.217-1.55c-0.022-0.711-0.189-1.26-0.5-1.648S16.384,2.6,15.695,2.6c-0.933,0-1.866,0.229-2.799,0.684
			s-1.761,1.088-2.483,1.898c-0.722,0.812-1.289,1.778-1.699,2.9c-0.411,1.121-0.55,2.338-0.417,3.648
			c0.111,1,0.417,1.844,0.917,2.532c0.5,0.688,0.971,1.222,1.416,1.6c0.355-0.044,0.688-0.083,1-0.116s0.6-0.051,0.867-0.051
			c0.377,0,0.755,0.066,1.133,0.2c0.377,0.134,0.566,0.322,0.566,0.566c0,0.179-0.039,0.378-0.117,0.601
			c-0.078,0.222-0.206,0.433-0.383,0.633c-0.178,0.199-0.389,0.366-0.633,0.5c-0.245,0.133-0.533,0.199-0.866,0.199
			c-0.267,0-0.589-0.066-0.967-0.199c-0.378-0.134-0.755-0.301-1.133-0.5c-0.844,0.178-1.611,0.494-2.299,0.949
			s-1.272,0.994-1.75,1.616s-0.85,1.3-1.116,2.032c-0.267,0.733-0.389,1.445-0.366,2.133c0.021,0.645,0.122,1.295,0.3,1.949
			c0.177,0.655,0.455,1.238,0.833,1.75c0.377,0.511,0.872,0.928,1.483,1.25c0.611,0.321,1.35,0.482,2.216,0.482
			c0.644,0,1.261-0.139,1.85-0.416c0.588-0.278,1.138-0.629,1.649-1.05c0.511-0.423,0.977-0.89,1.399-1.399
			c0.422-0.512,0.788-1.011,1.1-1.5c0.311-0.488,0.572-0.933,0.783-1.332c0.211-0.4,0.361-0.689,0.45-0.867
			c0.067-0.133,0.161-0.232,0.283-0.3c0.122-0.066,0.244-0.083,0.367-0.05c0.122,0.033,0.216,0.117,0.283,0.25
			c0.066,0.133,0.066,0.333,0,0.6c-0.178,0.8-0.511,1.694-1,2.683c-0.489,0.987-1.117,1.916-1.883,2.782
			c-0.767,0.866-1.666,1.594-2.699,2.183S9.797,32.323,8.531,32.323z"/>
		<path fill="#FFFFFF" d="M19.394,25.592c0.978-4.109,1.761-7.408,2.35-9.896c0.588-2.487,1.038-4.387,1.349-5.697
			c0.355-1.555,0.6-2.633,0.733-3.232c0.066-0.422,0.122-0.834,0.167-1.233c0.044-0.354,0.067-0.722,0.067-1.1
			s-0.034-0.722-0.1-1.033c0.177-0.11,0.372-0.2,0.583-0.267c0.211-0.066,0.417-0.121,0.617-0.166
			C25.403,2.9,25.647,2.845,25.892,2.8c0.244-0.044,0.466-0.067,0.667-0.067c0.177,0,0.344,0.018,0.5,0.051
			c0.155,0.033,0.255,0.105,0.3,0.217c0.133,0.111,0.194,0.333,0.183,0.666C27.53,4,27.502,4.344,27.458,4.699
			c-0.089,0.422-0.189,0.878-0.3,1.366c-0.267,0.956-0.633,2.333-1.1,4.132c-0.4,1.533-0.938,3.621-1.616,6.265
			s-1.527,5.976-2.549,9.997c-0.112,0.111-0.245,0.188-0.4,0.232c-0.156,0.045-0.3,0.067-0.433,0.067
			c-0.156,0-0.322-0.012-0.5-0.034c-0.156-0.044-0.312-0.111-0.467-0.199c-0.133-0.089-0.266-0.205-0.399-0.35
			S19.461,25.837,19.394,25.592z"/>
		<path fill="#FFFFFF" d="M30.091,13.596c0.111-0.133,0.322-0.244,0.633-0.332c0.311-0.09,0.633-0.162,0.966-0.217
			c0.333-0.056,0.638-0.089,0.916-0.101c0.278-0.011,0.438-0.005,0.483,0.017c0.022,0.022-0.033,0.256-0.167,0.7
			s-0.3,0.966-0.5,1.565c-0.2,0.6-0.411,1.217-0.633,1.85c-0.223,0.633-0.389,1.15-0.5,1.55c-0.111,0.399-0.245,0.85-0.4,1.35
			c-0.156,0.5-0.295,0.989-0.417,1.466c-0.123,0.479-0.206,0.928-0.25,1.35c-0.045,0.422-0.011,0.744,0.1,0.967
			c0.111,0.267,0.233,0.449,0.366,0.55c0.133,0.1,0.278,0.149,0.434,0.149c0.444,0,1.005-0.244,1.683-0.732
			c0.677-0.488,1.366-1.072,2.066-1.75s1.35-1.365,1.949-2.066c0.6-0.699,1.044-1.26,1.333-1.682
			c0.178-0.223,0.361-0.367,0.55-0.434c0.188-0.066,0.344-0.055,0.467,0.033c0.122,0.089,0.188,0.233,0.2,0.434
			c0.011,0.199-0.062,0.434-0.216,0.699c-0.356,0.623-0.878,1.361-1.566,2.217c-0.689,0.855-1.422,1.677-2.199,2.465
			c-0.778,0.789-1.539,1.461-2.283,2.017c-0.745,0.555-1.35,0.844-1.816,0.866c-0.378,0.021-0.75-0.039-1.116-0.184
			c-0.367-0.145-0.7-0.344-1-0.6c-0.3-0.255-0.55-0.555-0.75-0.899c-0.2-0.345-0.312-0.705-0.333-1.083
			c-0.066-0.555-0.066-1.316,0-2.283c0.067-0.966,0.188-1.954,0.367-2.965c0.178-1.012,0.405-1.972,0.683-2.883
			C29.418,14.719,29.735,14.041,30.091,13.596z M34.689,6.498c-0.067,0.245-0.195,0.484-0.383,0.717
			c-0.189,0.233-0.4,0.422-0.633,0.566c-0.233,0.145-0.472,0.239-0.716,0.283c-0.245,0.045-0.445,0-0.6-0.133
			c-0.467-0.355-0.711-0.738-0.733-1.15c-0.022-0.41,0.078-0.799,0.3-1.166c0.222-0.366,0.5-0.678,0.833-0.933
			c0.333-0.255,0.622-0.405,0.866-0.45c0.244-0.044,0.45,0.006,0.616,0.15c0.167,0.145,0.294,0.333,0.383,0.566
			c0.089,0.232,0.139,0.494,0.15,0.783S34.756,6.277,34.689,6.498z"/>
		<path fill="#FFFFFF" d="M45.485,13.863c0.288-0.223,0.571-0.395,0.85-0.518c0.277-0.121,0.527-0.205,0.75-0.25
			c0.244-0.066,0.488-0.088,0.732-0.066c0.601,0.045,0.972,0.234,1.117,0.566c0.144,0.334,0.16,0.867,0.05,1.6
			c-0.067,0.379-0.2,0.855-0.4,1.434c-0.199,0.578-0.433,1.283-0.699,2.115c-0.267,0.834-0.55,1.783-0.85,2.85
			c-0.301,1.066-0.584,2.266-0.851,3.599c-0.267,1.089-0.555,2.344-0.866,3.766c-0.267,1.243-0.583,2.743-0.949,4.499
			c-0.367,1.754-0.762,3.765-1.184,6.031c-0.111,0.555-0.35,0.877-0.716,0.966c-0.367,0.089-0.75,0.044-1.149-0.134
			c-0.156-0.088-0.3-0.188-0.433-0.299c-0.112-0.111-0.233-0.24-0.367-0.384c-0.133-0.145-0.245-0.339-0.333-0.583
			c0.511-1.866,0.961-3.565,1.349-5.099c0.389-1.532,0.738-2.866,1.05-3.999c0.333-1.311,0.645-2.488,0.934-3.531
			c0.11-0.467,0.216-0.928,0.316-1.383c0.1-0.455,0.205-0.905,0.316-1.35c-0.289,0.467-0.6,0.91-0.933,1.332
			c-0.334,0.423-0.7,0.789-1.1,1.1c-0.4,0.312-0.828,0.551-1.283,0.717c-0.456,0.166-0.928,0.217-1.416,0.15
			c-1.2-0.156-2.049-0.6-2.549-1.333s-0.716-1.688-0.65-2.866c0.022-0.467,0.089-0.977,0.2-1.533
			c0.111-0.555,0.233-1.088,0.366-1.599c0.133-0.511,0.261-0.972,0.383-1.384c0.122-0.41,0.217-0.704,0.283-0.883
			c0.267-0.844,0.461-1.566,0.583-2.166c0.122-0.6,0.027-1.1-0.283-1.499c0.311-0.2,0.605-0.339,0.883-0.417
			c0.277-0.077,0.527-0.139,0.75-0.183c0.244-0.022,0.488-0.022,0.733,0c0.6,0.089,0.95,0.312,1.049,0.667s0.061,0.889-0.116,1.599
			c-0.089,0.378-0.233,0.861-0.433,1.45c-0.2,0.588-0.412,1.193-0.633,1.815c-0.222,0.622-0.422,1.194-0.6,1.716
			c-0.178,0.522-0.278,0.895-0.3,1.117c-0.2,0.999-0.211,1.771-0.033,2.315c0.178,0.544,0.566,0.816,1.167,0.816
			c0.288,0,0.61-0.128,0.966-0.384c0.355-0.254,0.717-0.594,1.083-1.016s0.728-0.905,1.083-1.449
			c0.355-0.545,0.684-1.094,0.983-1.65c0.3-0.555,0.566-1.1,0.8-1.633c0.232-0.533,0.404-1.01,0.516-1.432
			c0.155-0.822,0.256-1.467,0.301-1.934C45.996,14.662,45.841,14.24,45.485,13.863z"/>
		<path fill="#FFFFFF" d="M67.678,19.494c-0.311,0.445-0.711,0.994-1.199,1.649c-0.489,0.655-0.994,1.312-1.517,1.966
			c-0.521,0.656-1.032,1.256-1.532,1.8s-0.917,0.928-1.25,1.149c-0.222,0.133-0.478,0.244-0.767,0.334
			c-0.288,0.088-0.583,0.144-0.883,0.166c-0.3,0.021-0.583,0.006-0.85-0.05s-0.5-0.149-0.699-0.283
			c-0.2-0.155-0.367-0.378-0.5-0.667c-0.111-0.244-0.217-0.566-0.316-0.966c-0.101-0.399-0.14-0.899-0.117-1.499
			c-0.533,0.889-1.122,1.571-1.766,2.049c-0.645,0.479-1.256,0.828-1.833,1.049c-0.667,0.245-1.333,0.389-1.999,0.434
			c-0.312,0-0.645-0.105-1-0.316s-0.655-0.544-0.899-1c-0.244-0.455-0.4-1.043-0.467-1.766c-0.066-0.722,0.022-1.583,0.267-2.582
			c0.311-1.355,0.805-2.588,1.482-3.699c0.678-1.11,1.417-2.061,2.216-2.85c0.8-0.787,1.589-1.383,2.366-1.782
			s1.422-0.577,1.933-0.533c0.6,0.111,1.089,0.289,1.467,0.533c0.311,0.222,0.516,0.55,0.616,0.983
			c0.1,0.433-0.083,1.005-0.55,1.716c0.311-0.067,0.571-0.11,0.783-0.134c0.211-0.021,0.371-0.033,0.482-0.033
			c0.134,0,0.223,0.012,0.267,0.033c0.022,0.045,0.034,0.14,0.034,0.283c0,0.145-0.034,0.406-0.101,0.783
			c-0.066,0.379-0.166,0.889-0.3,1.533c-0.133,0.645-0.312,1.478-0.533,2.499c-0.045,0.2-0.083,0.384-0.116,0.55
			s-0.067,0.334-0.101,0.5s-0.072,0.361-0.116,0.583c-0.045,0.223-0.1,0.5-0.167,0.833c-0.022,0.2-0.027,0.416-0.017,0.65
			c0.011,0.232,0.05,0.449,0.117,0.649c0.066,0.2,0.172,0.361,0.316,0.483s0.35,0.184,0.616,0.184c0.222,0,0.511-0.139,0.866-0.417
			s0.733-0.634,1.133-1.066c0.4-0.433,0.816-0.911,1.25-1.433s0.838-1.027,1.216-1.517c0.378-0.488,0.717-0.921,1.017-1.3
			c0.3-0.377,0.517-0.654,0.65-0.832c0.177-0.201,0.354-0.317,0.533-0.351c0.177-0.033,0.311,0.017,0.399,0.149
			c0.089,0.134,0.105,0.334,0.05,0.601S67.944,19.139,67.678,19.494z M57.915,20.961c0.11-0.444,0.244-0.967,0.399-1.566
			s0.288-1.178,0.4-1.732c0.11-0.556,0.193-1.018,0.249-1.383c0.056-0.367,0.039-0.539-0.05-0.518
			c-0.111,0.023-0.233,0.057-0.366,0.101c-0.111,0.044-0.256,0.078-0.434,0.1c-0.178,0.022-0.355,0.056-0.533,0.101
			c0.178-0.355,0.283-0.65,0.317-0.883c0.033-0.234,0.038-0.417,0.017-0.551c-0.022-0.154-0.067-0.277-0.134-0.366
			c-0.244-0.2-0.672-0.038-1.283,0.483c-0.61,0.521-1.315,1.482-2.115,2.883c-0.334,0.577-0.601,1.193-0.8,1.849
			c-0.2,0.655-0.339,1.272-0.417,1.85s-0.095,1.083-0.05,1.517c0.044,0.433,0.134,0.716,0.267,0.85
			c0.244,0.244,0.521,0.361,0.833,0.35c0.311-0.012,0.628-0.1,0.95-0.267c0.321-0.167,0.644-0.384,0.966-0.649
			c0.322-0.268,0.61-0.545,0.866-0.834c0.256-0.288,0.467-0.555,0.634-0.799C57.798,21.25,57.893,21.072,57.915,20.961z"/>
		<path fill="#FFFFFF" d="M82.64,18.795c0.155-0.178,0.316-0.271,0.483-0.283s0.3,0.033,0.4,0.133c0.1,0.1,0.144,0.25,0.133,0.449
			c-0.012,0.201-0.105,0.423-0.283,0.667c-0.422,0.578-0.911,1.173-1.466,1.782c-0.556,0.611-1.15,1.206-1.783,1.783
			c-0.633,0.578-1.271,1.122-1.916,1.633c-0.645,0.512-1.267,0.934-1.866,1.267c-0.666,0.378-1.228,0.566-1.683,0.566
			s-0.905-0.289-1.35-0.866c-0.399-0.512-0.595-1.061-0.583-1.65c0.011-0.588,0.139-1.326,0.383-2.215
			c0.155-0.556,0.372-1.217,0.65-1.982c0.277-0.768,0.5-1.506,0.666-2.217c0.167-0.711,0.217-1.316,0.15-1.816
			c-0.067-0.5-0.355-0.749-0.866-0.749c-0.356,0-0.739,0.122-1.15,0.366s-0.822,0.562-1.232,0.949
			c-0.411,0.39-0.806,0.828-1.184,1.316c-0.378,0.489-0.711,0.967-0.999,1.434c-0.179,0.866-0.355,1.722-0.533,2.565
			c-0.156,0.712-0.316,1.483-0.483,2.315c-0.167,0.834-0.328,1.572-0.483,2.217c-0.133,0.111-0.277,0.188-0.433,0.232
			c-0.156,0.045-0.3,0.067-0.434,0.067c-0.155,0-0.312-0.012-0.467-0.034c-0.178-0.044-0.345-0.111-0.499-0.199
			c-0.134-0.089-0.267-0.205-0.4-0.35c-0.133-0.145-0.233-0.339-0.3-0.584c1-4.109,1.788-7.408,2.366-9.896
			c0.577-2.487,1.021-4.387,1.333-5.697c0.354-1.555,0.6-2.633,0.732-3.232c0.067-0.422,0.122-0.834,0.167-1.233
			c0.044-0.354,0.066-0.722,0.066-1.1s-0.033-0.722-0.1-1.033c0.178-0.11,0.371-0.2,0.583-0.267
			c0.211-0.066,0.416-0.121,0.616-0.166C71.121,2.9,71.365,2.845,71.61,2.8c0.244-0.044,0.467-0.067,0.666-0.067
			c0.178,0,0.345,0.018,0.5,0.051s0.255,0.105,0.3,0.217c0.134,0.111,0.194,0.333,0.184,0.666C73.248,4,73.221,4.344,73.177,4.699
			c-0.09,0.422-0.189,0.878-0.301,1.366c-0.466,1.8-0.988,3.549-1.565,5.248c-0.578,1.7-1.111,3.516-1.6,5.448
			c0.288-0.443,0.633-0.899,1.033-1.366c0.399-0.466,0.838-0.894,1.316-1.282c0.477-0.389,0.982-0.711,1.516-0.967
			s1.1-0.383,1.699-0.383c0.312,0,0.605,0.049,0.884,0.149c0.277,0.101,0.521,0.267,0.732,0.5s0.372,0.544,0.483,0.933
			s0.155,0.873,0.133,1.449c0,0.356-0.039,0.723-0.116,1.1c-0.078,0.379-0.184,0.795-0.316,1.25
			c-0.134,0.455-0.306,0.961-0.517,1.517s-0.461,1.199-0.75,1.933c-0.199,0.512-0.355,0.944-0.466,1.299
			c-0.112,0.356-0.09,0.667,0.066,0.934c0.2,0.355,0.594,0.439,1.183,0.25c0.589-0.188,1.472-0.761,2.649-1.717
			c0.267-0.221,0.566-0.499,0.899-0.832c0.333-0.334,0.655-0.672,0.967-1.017c0.311-0.345,0.6-0.672,0.866-0.983
			C82.24,19.217,82.462,18.973,82.64,18.795z"/>
		<path fill="#FFFFFF" d="M85.473,26.658c-0.845,0-1.533-0.133-2.066-0.399s-0.949-0.595-1.249-0.983s-0.512-0.811-0.634-1.266
			s-0.183-0.872-0.183-1.25c0-0.666,0.055-1.371,0.166-2.115s0.244-1.434,0.4-2.066c0.155-0.633,0.294-1.172,0.416-1.616
			s0.205-0.722,0.25-0.833c0.2-0.645,0.461-1.205,0.783-1.684c0.322-0.477,0.771-0.805,1.35-0.982
			c0.222-0.045,0.455-0.088,0.7-0.133c0.199-0.022,0.404-0.033,0.616-0.033c0.211,0,0.405,0.033,0.583,0.1
			c-0.6,1.533-1.072,2.811-1.416,3.832c-0.345,1.021-0.605,1.855-0.783,2.499c-0.2,0.733-0.322,1.321-0.366,1.767
			c-0.111,0.999-0.022,1.755,0.267,2.266c0.288,0.512,0.877,0.766,1.766,0.766c0.577,0,1.133-0.216,1.666-0.648
			c0.533-0.434,1.021-0.994,1.467-1.684c-0.067-0.355-0.101-0.722-0.101-1.1c0-0.711,0.062-1.404,0.184-2.082s0.267-1.311,0.433-1.9
			c0.167-0.588,0.345-1.115,0.533-1.582s0.351-0.834,0.483-1.1c0.244-0.533,0.467-0.861,0.667-0.983
			c0.199-0.122,0.521-0.194,0.966-0.217c0.178-0.021,0.328-0.027,0.45-0.017c0.122,0.012,0.228,0.028,0.316,0.051
			c0.267,0.066,0.399,0.199,0.399,0.399c0,0.355-0.021,0.889-0.066,1.599c-0.045,0.712-0.178,1.445-0.399,2.199
			c-0.156,0.623-0.306,1.15-0.45,1.584c-0.145,0.433-0.283,0.799-0.416,1.1c-0.134,0.299-0.267,0.545-0.4,0.732
			c-0.133,0.189-0.256,0.361-0.366,0.517c0.044,0.667,0.1,1.2,0.166,1.6c0.067,0.399,0.15,0.706,0.25,0.917
			c0.101,0.211,0.222,0.355,0.367,0.433c0.144,0.078,0.305,0.116,0.482,0.116c0.312,0,0.678-0.149,1.1-0.449
			c0.422-0.301,0.861-0.678,1.316-1.133s0.911-0.955,1.366-1.5c0.455-0.544,0.872-1.061,1.25-1.549
			c0.377-0.488,0.699-0.917,0.966-1.283c0.267-0.367,0.434-0.594,0.5-0.684c0.155-0.199,0.306-0.322,0.45-0.366
			s0.261-0.028,0.35,0.05s0.139,0.2,0.15,0.367c0.011,0.166-0.039,0.35-0.15,0.549c-0.444,0.845-0.994,1.738-1.649,2.683
			s-1.355,1.816-2.1,2.616s-1.494,1.466-2.249,1.999s-1.466,0.8-2.133,0.8c-0.6,0-1.071-0.205-1.416-0.616s-0.639-1.005-0.883-1.782
			c-0.512,0.799-1.111,1.416-1.8,1.849S86.316,26.658,85.473,26.658z"/>
	</g>
</g>
</svg>
