<?xml version="1.0" encoding="utf-8"?>
<!-- Generator: Adobe Illustrator 16.0.0, SVG Export Plug-In . SVG Version: 6.00 Build 0)  -->
<!DOCTYPE svg PUBLIC "-//W3C//DTD SVG 1.1//EN" "http://www.w3.org/Graphics/SVG/1.1/DTD/svg11.dtd">
<svg version="1.1" id="Layer_1" xmlns="http://www.w3.org/2000/svg" xmlns:xlink="http://www.w3.org/1999/xlink" x="0px" y="0px"
	 width="86.527px" height="26.898px" viewBox="0 0 86.527 26.898" enable-background="new 0 0 86.527 26.898" xml:space="preserve">
<g>
	<path d="M7.938,16.799L0.769,0h2.58l3.51,8.219c1.71,4.02,2.46,5.91,2.49,5.971h0.06c0.03-0.061,0.721-1.86,2.46-5.94L15.348,0
		h2.49l-7.199,16.799H7.938z"/>
	<path d="M24.559,0h2.34v16.799h-2.34V0z"/>
	<path d="M42.408,2.189v14.609h-2.34V2.189h-5.85V0h14.068v2.189H42.408z"/>
	<path d="M55.129,12.299l-1.74,4.5h-2.43L57.828,0h2.76l6.87,16.799h-2.46l-1.77-4.5H55.129z M60.948,6.51
		c-1.2-3-1.71-4.44-1.71-4.5h-0.09c0,0.06-0.6,1.649-1.801,4.709l-1.409,3.541h6.479L60.948,6.51z"/>
	<path d="M74.358,0h2.34v14.609h8.76v2.189h-11.1V0z"/>
	<path d="M2.846,22.865v3.934H1.657v-3.934H0v-1.107h4.502v1.107H2.846z"/>
	<path d="M8.533,25.07c-0.117,0.009-0.404,0.009-0.486,0.009H7.723v1.72H6.535v-5.041h1.963c1.332,0,2.098,0.639,2.098,1.665
		c0,0.765-0.414,1.224-0.945,1.413l1.197,1.963H9.568L8.533,25.07z M8.569,24.161c0.54,0,0.819-0.234,0.819-0.667
		c0-0.432-0.279-0.666-0.819-0.666H7.723v1.333H8.569z"/>
	<path d="M13.996,25.764l-0.352,1.035H12.43l1.881-5.041h1.468l1.882,5.041h-1.225l-0.36-1.035H13.996z M15.454,23.945
		c-0.288-0.828-0.396-1.197-0.405-1.216h-0.027l-0.432,1.27l-0.252,0.747h1.396L15.454,23.945z"/>
	<path d="M23.015,26.799l-2.269-3.214h-0.027c0,0.009,0.018,0.55,0.018,1.126v2.088h-1.188v-5.041h1.225l2.268,3.123h0.027
		c0-0.009-0.009-0.477-0.009-0.99v-2.133h1.188v5.041H23.015z"/>
	<path d="M27.324,25.25c0.063,0.36,0.388,0.729,1.1,0.729c0.494,0,0.818-0.181,0.818-0.595c0-0.566-0.604-0.584-1.512-0.791
		c-0.658-0.154-1.387-0.414-1.387-1.414c0-1.018,0.747-1.521,1.963-1.521c1.134,0,1.863,0.432,2.098,1.252l-1.035,0.279
		c-0.109-0.369-0.441-0.613-0.991-0.613c-0.513,0-0.81,0.198-0.81,0.549c0,0.434,0.432,0.505,1.242,0.667
		c0.666,0.135,1.646,0.405,1.646,1.566c0,1.099-0.873,1.54-2.033,1.54c-0.883,0-1.945-0.252-2.17-1.359L27.324,25.25z"/>
	<path d="M33.651,22.865v1.134h1.792v1.107h-1.792v1.692h-1.188v-5.041H36.1v1.107H33.651z"/>
	<path d="M40.465,21.658c1.559,0,2.701,1.099,2.701,2.619c0,1.531-1.143,2.621-2.701,2.621c-1.557,0-2.7-1.09-2.7-2.621
		C37.765,22.757,38.908,21.658,40.465,21.658z M40.465,25.817c0.873,0,1.494-0.621,1.494-1.54c0-0.908-0.621-1.529-1.494-1.529
		c-0.882,0-1.494,0.621-1.494,1.529C38.971,25.196,39.583,25.817,40.465,25.817z"/>
	<path d="M47.18,25.07c-0.117,0.009-0.406,0.009-0.486,0.009h-0.324v1.72h-1.188v-5.041h1.962c1.333,0,2.098,0.639,2.098,1.665
		c0,0.765-0.414,1.224-0.945,1.413l1.197,1.963h-1.277L47.18,25.07z M47.215,24.161c0.541,0,0.819-0.234,0.819-0.667
		c0-0.432-0.278-0.666-0.819-0.666h-0.846v1.333H47.215z"/>
	<path d="M55.567,24.539v-1.035h-0.026l-1.072,2.08h-0.765l-1.099-2.143h-0.027v1.035v2.322h-1.143v-5.041h1.44l0.802,1.477
		c0.278,0.513,0.459,0.891,0.467,0.891h0.027c0.018,0,0.198-0.378,0.478-0.9l0.783-1.467h1.323v5.041h-1.188V24.539z"/>
	<path d="M60.201,25.764l-0.351,1.035h-1.216l1.882-5.041h1.468l1.881,5.041h-1.224l-0.36-1.035H60.201z M61.66,23.945
		c-0.288-0.828-0.396-1.197-0.405-1.216h-0.026l-0.433,1.27l-0.252,0.747h1.396L61.66,23.945z"/>
	<path d="M67.528,22.865v3.934H66.34v-3.934h-1.656v-1.107h4.501v1.107H67.528z"/>
	<path d="M71.217,21.758h1.188v5.041h-1.188V21.758z"/>
	<path d="M77.113,21.658c1.557,0,2.7,1.099,2.7,2.619c0,1.531-1.144,2.621-2.7,2.621c-1.559,0-2.701-1.09-2.701-2.621
		C74.412,22.757,75.555,21.658,77.113,21.658z M77.113,25.817c0.873,0,1.494-0.621,1.494-1.54c0-0.908-0.621-1.529-1.494-1.529
		c-0.883,0-1.495,0.621-1.495,1.529C75.618,25.196,76.23,25.817,77.113,25.817z"/>
	<path d="M85.294,26.799l-2.269-3.214h-0.027c0,0.009,0.018,0.55,0.018,1.126v2.088h-1.188v-5.041h1.225l2.268,3.123h0.027
		c0-0.009-0.009-0.477-0.009-0.99v-2.133h1.188v5.041H85.294z"/>
</g>
<text transform="matrix(1 0 0 1 -1.2559 16.7988)" display="none"><tspan x="0" y="0" display="inline" font-family="'Novecentosanswide-Normal'" font-size="30" letter-spacing="3">vital</tspan><tspan x="0.532" y="10" display="inline" font-family="'Novecentosanswide-DemiBold'" font-size="9" letter-spacing="1">transformation</tspan></text>
</svg>
